<mxfile host="app.diagrams.net" modified="2023-09-04T07:28:53.739Z" agent="Mozilla/5.0 (Windows NT 10.0; Win64; x64; rv:109.0) Gecko/20100101 Firefox/117.0" version="21.6.2" etag="Xpfc_sxi2tCqQXUebGN0" type="github">
  <diagram name="Page-1" id="tdkYHed1ZKg_vF4j7-y2">
    <mxGraphModel>
      <root>
        <mxCell id="0" />
        <mxCell id="1" parent="0" />
      </root>
    </mxGraphModel>
  </diagram>
</mxfile>
